<?xml version="1.0" encoding="utf-8"?>
<!-- Generator: Adobe Illustrator 23.0.3, SVG Export Plug-In . SVG Version: 6.00 Build 0)  -->
<svg version="1.1" id="Layer_1" xmlns="http://www.w3.org/2000/svg" xmlns:xlink="http://www.w3.org/1999/xlink" x="0px" y="0px"
	 viewBox="0 0 720 269" style="enable-background:new 0 0 720 269;" xml:space="preserve">
<style type="text/css">
	.st0{fill:#CED8D7;}
</style>
<g>
	<g id="XMLID_7_">
		<g id="XMLID_44_">
			<g id="XMLID_186_">
				<path id="XMLID_192_" class="st0" d="M30.3,125.5V45.8H6V144h79.7v-18.5H30.3z"/>
				<path id="XMLID_188_" class="st0" d="M160.9,73.8c-6.8-5.5-16.7-8.2-29.4-8.2c-6.6,0-13.1,0.8-19.4,2.3
					c-6.3,1.6-11.7,3.8-16.1,6.6l8.6,15.1c2.9-2.1,6.5-3.9,10.8-5c4.2-1.3,8.6-1.8,12.9-1.8c6.3,0,11.1,2.3,14.2,4.8
					c3.1,2.5,4.7,7.7,4.7,11.9h-19c-12,0-20.9,1-26.7,4.9c-5.8,3.9-8.6,8.9-8.6,15.9c0,4.4,1.3,8,3.7,11.4c2.4,3.4,6,6,10.7,7.9
					c4.6,1.9,10.1,2.9,16.4,2.9c12.2,0,19.1-3.5,25-10.5v12h22.6V98.7C171.3,87.7,167.7,79.4,160.9,73.8z M146.9,117.7
					c-2.5,3.4-3.4,5.9-6.6,7.5c-3.1,1.7-6.7,2.5-10.7,2.5c-4.2,0-7.5-0.8-9.8-2.4c-2.3-1.6-3.6-2.9-3.6-5.6c0-5.8,4.9-7.7,14.7-7.7
					h16.1V117.7z"/>
			</g>
		</g>
		<g id="XMLID_8_">
			<path id="XMLID_10_" class="st0" d="M629.2,11.4H184.1v169.5h445.1c23.4,0,44.6-9.6,60-25S714,119.5,714,96.1
				C714,49.3,676,11.4,629.2,11.4z M671,67.1h19.5c4.1,8.7,6.5,18.4,6.5,28.7c0,10.2-2.3,20-6.5,28.7H671V67.1z M658.6,124.5h-57.3
				V67.1h57.3V124.5z M682.9,54.7H671V42.8C675.4,46.2,679.4,50.3,682.9,54.7z M629.9,28.7c10.2,0,20,2.3,28.7,6.5v19.5h-57.3V35.1
				C609.9,31,619.6,28.7,629.9,28.7z M588.8,42.8v11.9h-11.9C580.3,50.3,584.3,46.2,588.8,42.8z M225.3,111
				c2.7,4.4,6.5,7.8,11.3,10.2s10.4,3.7,16.5,3.7c10,0,18.4-3.6,25.1-10.7l14.8,12.4c-4.8,5.3-10.7,9.2-17.7,12
				c-7,2.8-14.8,4.1-23.5,4.1c-10.2,0-19.4-2-27.6-6s-14.7-9.6-19.4-16.7c-4.7-7.1-7-15.2-7-24.1s2.3-16.9,7-24.1
				c4.7-7.1,11.2-12.7,19.4-16.7c8.2-4,17.4-6,27.8-6c8.6,0,16.4,1.4,23.4,4.1c7,2.8,12.8,6.7,17.6,11.9l-14.8,12.6
				c-6.8-7-15.1-10.6-25.1-10.6c-6.2,0-11.7,1.3-16.5,3.7c-4.9,2.4-8.6,5.9-11.3,10.2c-2.7,4.4-4,9.4-4,15
				C221.2,101.6,222.5,106.6,225.3,111z M387.4,125c-3.6,5.5-8.6,9.6-14.9,12.8c-6.4,3.1-13.6,4.6-21.6,4.6
				c-8.1,0-15.4-1.5-21.7-4.6c-6.4-3-11.4-7.3-15-12.8c-3.6-5.5-5.4-11.6-5.4-18.5c0-6.9,1.8-13.1,5.4-18.5c3.6-5.5,8.6-9.6,15-12.8
				c6.4-3.1,13.7-4.6,21.7-4.6s15.3,1.5,21.6,4.6c6.4,3.1,11.3,7.3,14.9,12.8s5.5,11.6,5.5,18.5C392.8,113.4,391,119.5,387.4,125z
				 M537.3,142.1h-22.5v-37.6c0-5.5-1.1-9.6-3.6-12.3c-2.5-2.7-6-4.1-10.6-4.1c-5.2,0-9.2,1.5-12.2,4.6c-3,3.1-4.2,7.6-4.2,13.7
				v35.7h-22.5v-37.6c0-10.9-5.3-16.4-15-16.4c-5.1,0-9.6,1.5-12.7,4.6c-3,3.1-4.9,7.6-4.9,13.7v35.7h-22.5V72.7h22.5v7
				c2-2.9,6.2-5.2,10.4-6.7c4.1-1.5,8.6-2.3,13.5-2.3c5.4,0,10.3,1,14.7,2.9c4.4,1.9,7.9,4.8,10.6,8.5c3.1-3.6,7.1-6.5,11.9-8.4
				c4.8-2,10.1-3,15.8-3c9.6,0,17.3,2.6,22.9,7.7c5.6,5.1,8.5,12.8,8.5,23.1V142.1z M569.1,67.1h19.5v57.3h-19.5
				c-4.1-8.7-6.5-18.4-6.5-28.7C562.8,85.6,565,75.8,569.1,67.1z M576.8,136.9h11.9v11.9C584.3,145.4,580.3,141.4,576.8,136.9z
				 M601.2,156.5v-19.5h57.3v19.5c-8.7,4.1-18.4,6.5-28.7,6.5C619.6,162.9,609.9,160.7,601.2,156.5z M671,148.8v-11.9h11.9
				C679.4,141.4,675.4,145.4,671,148.8z"/>
			<path id="XMLID_9_" class="st0" d="M350.8,87.3c-5.7,0-10.4,1.8-14.1,5.2c-3.7,3.5-5.5,8.1-5.5,14c0,5.9,1.8,10.6,5.5,14
				c3.7,3.5,8.4,5.3,14.1,5.3s10.4-1.8,14-5.3c3.7-3.5,5.5-8.1,5.5-14c0-5.9-1.8-10.6-5.5-14C361.2,89,356.5,87.3,350.8,87.3z"/>
		</g>
	</g>
	<g id="XMLID_52_">
		<g>
			<path id="XMLID_195_" class="st0" d="M39.7,226.4c0,6.1-1.9,10.7-5.7,13.9c-3.8,3.2-9.3,4.8-16.5,4.8H6v-36.8h12.8
				c6.6,0,11.8,1.6,15.4,4.7C37.8,216.3,39.7,220.7,39.7,226.4z M30.7,226.6c0-7.9-3.8-11.9-11.5-11.9h-4.6v24h3.7
				C26.6,238.7,30.7,234.7,30.7,226.6z"/>
			<path id="XMLID_198_" class="st0" d="M47.1,209.7c0-2.5,1.5-3.7,4.6-3.7c3,0,4.6,1.3,4.6,3.7c0,1.2-0.4,2.1-1.2,2.8s-1.9,1-3.5,1
				C48.6,213.5,47.1,212.2,47.1,209.7z M55.9,245.2h-8.5v-28.1h8.5V245.2z"/>
			<path id="XMLID_201_" class="st0" d="M91.8,217v3.9L87,222c0.8,1.3,1.4,2.7,1.4,4.2c0,3-1.2,5.3-3.5,7c-2.3,1.7-5.6,2.5-9.7,2.5
				l-1.5-0.1l-1.3-0.1c-0.8,0.6-1.3,1.3-1.3,2c0,1.1,1.5,1.7,4.7,1.7H81c3.4,0,6,0.7,7.8,1.9c1.8,1.4,2.7,3.3,2.7,5.8
				c0,3.3-1.5,5.8-4.6,7.6c-3,1.8-7.4,2.7-13,2.7c-4.3,0-7.6-0.7-9.9-2c-2.3-1.4-3.4-3.3-3.4-5.8c0-1.7,0.6-3.1,1.8-4.2
				s2.9-1.9,5.2-2.5c-0.8-0.3-1.6-0.8-2.3-1.6c-0.7-0.8-0.9-1.6-0.9-2.5c0-1.1,0.3-1.9,1-2.7c0.7-0.7,1.7-1.4,3-2.1
				c-1.6-0.7-2.9-1.7-3.9-3s-1.4-3-1.4-5c0-3,1.1-5.4,3.3-7.1c2.2-1.7,5.3-2.5,9.4-2.5c0.8,0,1.9,0.1,3.1,0.3
				c1.2,0.2,1.9,0.3,2.3,0.3L91.8,217L91.8,217z M67.8,249.1c0,1,0.6,1.9,1.7,2.5c1.1,0.6,2.7,0.9,4.7,0.9c3,0,5.4-0.3,7.1-1.1
				c1.7-0.8,2.5-1.8,2.5-3.1c0-1-0.5-1.8-1.5-2.2s-2.6-0.6-4.7-0.6h-4.4c-1.5,0-2.9,0.3-3.9,1C68.4,247.1,67.8,248,67.8,249.1z
				 M71,226.2c0,1.5,0.4,2.7,1.2,3.6c0.8,0.9,1.9,1.4,3.5,1.4c1.6,0,2.8-0.4,3.5-1.4c0.8-0.8,1.1-2.1,1.1-3.6c0-3.4-1.5-5.1-4.6-5.1
				C72.5,221.1,71,222.8,71,226.2z"/>
			<path id="XMLID_205_" class="st0" d="M96.6,209.7c0-2.5,1.5-3.7,4.6-3.7c3,0,4.6,1.3,4.6,3.7c0,1.2-0.4,2.1-1.2,2.8s-1.9,1-3.5,1
				C98.1,213.5,96.6,212.2,96.6,209.7z M105.4,245.2H97v-28.1h8.5V245.2z"/>
			<path id="XMLID_208_" class="st0" d="M127.4,239.5c1.4,0,3.2-0.3,5.3-0.8v5.7c-2.1,0.8-4.7,1.3-7.8,1.3c-3.4,0-5.8-0.8-7.4-2.4
				s-2.3-3.9-2.3-7v-13.6h-4.1v-3.2l4.7-2.5l2.5-5.9h5.4v6h8.7v5.8h-8.7v13.6c0,1.1,0.3,1.9,1,2.5
				C125.4,239.3,126.3,239.5,127.4,239.5z"/>
			<path id="XMLID_210_" class="st0" d="M158.7,245.2l-1.6-3.8h-0.3c-1.4,1.6-2.9,2.8-4.4,3.4c-1.5,0.6-3.5,0.9-5.9,0.9
				c-3,0-5.3-0.8-7-2.3c-1.7-1.5-2.5-3.7-2.5-6.6c0-3,1.2-5.2,3.5-6.6c2.3-1.4,5.8-2.2,10.4-2.4l5.4-0.2v-1.3c0-2.9-1.6-4.3-4.8-4.3
				c-2.5,0-5.4,0.7-8.7,2l-2.8-5.2c3.6-1.7,7.5-2.5,11.9-2.5c4.1,0,7.4,0.8,9.6,2.5c2.2,1.6,3.3,4.1,3.3,7.5v18.8H158.7z
				 M156.2,232.1l-3.3,0.1c-2.5,0.1-4.3,0.5-5.5,1.2c-1.2,0.8-1.8,1.9-1.8,3.4c0,2.2,1.4,3.2,4.1,3.2c1.9,0,3.6-0.5,4.7-1.5
				c1.2-1,1.8-2.4,1.8-4.1L156.2,232.1L156.2,232.1z"/>
			<path id="XMLID_213_" class="st0" d="M181.8,245.2h-8.5V206h8.5V245.2z"/>
			<path id="XMLID_215_" class="st0" d="M223.3,245.2l-9.7-28.9h-0.3c0.3,5.8,0.5,9.8,0.5,11.8v17.1h-7.7v-36.8h11.7l9.6,28.1h0.2
				l10.2-28.1h11.7v36.8h-8v-17.4c0-0.8,0-1.8,0-2.9s0.2-3.9,0.3-8.6h-0.3l-10.5,28.8L223.3,245.2L223.3,245.2z"/>
			<path id="XMLID_217_" class="st0" d="M278.8,245.2l-1.6-3.8h-0.3c-1.4,1.6-2.9,2.8-4.4,3.4c-1.5,0.6-3.5,0.9-5.9,0.9
				c-3,0-5.3-0.8-7-2.3c-1.7-1.5-2.5-3.7-2.5-6.6c0-3,1.2-5.2,3.5-6.6c2.3-1.4,5.8-2.2,10.4-2.4l5.4-0.2v-1.3c0-2.9-1.6-4.3-4.8-4.3
				c-2.5,0-5.4,0.7-8.7,2l-2.8-5.2c3.6-1.7,7.5-2.5,11.9-2.5c4.1,0,7.4,0.8,9.6,2.5c2.2,1.6,3.3,4.1,3.3,7.5v18.8H278.8z
				 M276.3,232.1l-3.3,0.1c-2.5,0.1-4.3,0.5-5.5,1.2c-1.2,0.8-1.8,1.9-1.8,3.4c0,2.2,1.4,3.2,4.1,3.2c1.9,0,3.6-0.5,4.7-1.5
				c1.2-1,1.8-2.4,1.8-4.1L276.3,232.1L276.3,232.1z"/>
			<path id="XMLID_220_" class="st0" d="M310.8,216.5c1.2,0,2.1,0.1,2.9,0.3l-0.7,7.2c-0.7-0.2-1.5-0.3-2.5-0.3
				c-2.7,0-4.8,0.6-6.4,1.9c-1.5,1.3-2.3,3-2.3,5.3v14.3h-8.5V217h6.4l1.3,4.7h0.4c0.9-1.6,2.3-2.9,3.9-3.8
				C307.1,217,308.8,216.5,310.8,216.5z"/>
			<path id="XMLID_222_" class="st0" d="M327.4,229.8l3.7-4.3l8.7-8.6h9.6L337,229.2l13,15.9h-9.7l-9-11.3l-3.6,2.6v8.7h-8.5v-39.2
				h8.5v17.4L327.4,229.8L327.4,229.8L327.4,229.8z"/>
			<path id="XMLID_224_" class="st0" d="M368.6,245.7c-5,0-8.9-1.3-11.7-3.7c-2.8-2.5-4.2-6-4.2-10.6c0-4.7,1.3-8.4,3.9-10.9
				c2.6-2.5,6.2-3.9,10.8-3.9c4.4,0,7.8,1.1,10.2,3.4c2.5,2.3,3.6,5.4,3.6,9.4v3.7h-20c0.1,2.2,0.8,3.9,2.1,5.1
				c1.4,1.2,3.2,1.9,5.6,1.9c1.9,0,3.6-0.2,5.3-0.5s3.4-0.9,5.3-1.7v5.9c-1.4,0.7-3,1.2-4.7,1.5C373,245.6,371,245.7,368.6,245.7z
				 M367.4,222c-1.8,0-3.2,0.5-4.2,1.5c-1,1-1.6,2.5-1.8,4.4h11.9c0-1.9-0.6-3.4-1.6-4.4C370.6,222.5,369.1,222,367.4,222z"/>
			<path id="XMLID_227_" class="st0" d="M401.2,239.5c1.4,0,3.2-0.3,5.3-0.8v5.7c-2.1,0.8-4.7,1.3-7.8,1.3c-3.4,0-5.8-0.8-7.4-2.4
				c-1.5-1.6-2.3-3.9-2.3-7v-13.6h-4.1v-3.2l4.7-2.5l2.5-5.9h5.4v6h8.7v5.8h-8.7v13.6c0,1.1,0.3,1.9,1,2.5
				C399.3,239.3,400.1,239.5,401.2,239.5z"/>
			<path id="XMLID_229_" class="st0" d="M412.4,209.7c0-2.5,1.5-3.7,4.6-3.7c3,0,4.6,1.3,4.6,3.7c0,1.2-0.4,2.1-1.2,2.8
				c-0.8,0.7-1.9,1-3.5,1C414,213.5,412.4,212.2,412.4,209.7z M421.3,245.2h-8.5v-28.1h8.5V245.2z"/>
			<path id="XMLID_232_" class="st0" d="M458.8,245.2h-8.5v-16.4c0-2-0.4-3.6-1.2-4.6c-0.8-1-2-1.5-3.8-1.5c-2.4,0-4.1,0.7-5.2,2.1
				c-1,1.4-1.6,3.8-1.6,7.1v13.2h-8.5V217h6.4l1.1,3.6h0.5c0.9-1.4,2.3-2.4,3.9-3c1.7-0.7,3.6-1,5.7-1c3.6,0,6.4,0.8,8.2,2.6
				c1.9,1.8,2.8,4.3,2.8,7.7L458.8,245.2L458.8,245.2z"/>
			<path id="XMLID_234_" class="st0" d="M494.6,217v3.9l-4.8,1.1c0.8,1.3,1.4,2.7,1.4,4.2c0,3-1.2,5.3-3.5,7s-5.6,2.5-9.7,2.5
				l-1.5-0.1l-1.3-0.1c-0.8,0.6-1.3,1.3-1.3,2c0,1.1,1.5,1.7,4.7,1.7h5.3c3.4,0,6,0.7,7.8,1.9c1.8,1.4,2.7,3.3,2.7,5.8
				c0,3.3-1.5,5.8-4.6,7.6c-3,1.8-7.4,2.7-13,2.7c-4.3,0-7.6-0.7-9.9-2c-2.3-1.4-3.4-3.3-3.4-5.8c0-1.7,0.6-3.1,1.8-4.2
				s2.9-1.9,5.2-2.5c-0.8-0.3-1.6-0.8-2.3-1.6c-0.7-0.8-0.9-1.6-0.9-2.5c0-1.1,0.3-1.9,1-2.7c0.7-0.7,1.7-1.4,3-2.1
				c-1.6-0.7-2.9-1.7-3.9-3s-1.4-3-1.4-5c0-3,1.1-5.4,3.3-7.1c2.2-1.7,5.3-2.5,9.4-2.5c0.8,0,1.9,0.1,3.1,0.3
				c1.2,0.2,1.9,0.3,2.3,0.3L494.6,217L494.6,217z M470.6,249.1c0,1,0.6,1.9,1.7,2.5c1.1,0.6,2.7,0.9,4.7,0.9c3,0,5.4-0.3,7.1-1.1
				c1.7-0.8,2.5-1.8,2.5-3.1c0-1-0.5-1.8-1.5-2.2c-1-0.4-2.6-0.6-4.7-0.6H476c-1.5,0-2.9,0.3-3.9,1
				C471.1,247.1,470.6,248,470.6,249.1z M473.7,226.2c0,1.5,0.4,2.7,1.2,3.6c0.8,0.9,1.9,1.4,3.5,1.4c1.6,0,2.8-0.4,3.5-1.4
				c0.8-0.8,1.1-2.1,1.1-3.6c0-3.4-1.5-5.1-4.6-5.1C475.3,221.1,473.7,222.8,473.7,226.2z"/>
			<path id="XMLID_238_" class="st0" d="M540,245.2l-3-8.7h-14.8l-3,8.7h-9.3l14.3-36.9h10.5l14.4,36.9H540z M535,229.8
				c-2.7-8-4.2-12.4-4.6-13.5c-0.3-1-0.6-1.9-0.8-2.5c-0.6,2.1-2.4,7.5-5.3,15.9H535z"/>
			<path id="XMLID_241_" class="st0" d="M580.7,217v3.9l-4.8,1.1c0.8,1.3,1.4,2.7,1.4,4.2c0,3-1.2,5.3-3.5,7s-5.6,2.5-9.7,2.5
				l-1.5-0.1l-1.3-0.1c-0.8,0.6-1.3,1.3-1.3,2c0,1.1,1.5,1.7,4.7,1.7h5.3c3.4,0,6,0.7,7.8,1.9c1.8,1.4,2.7,3.3,2.7,5.8
				c0,3.3-1.5,5.8-4.6,7.6c-3,1.8-7.4,2.7-13,2.7c-4.3,0-7.6-0.7-9.9-2s-3.4-3.3-3.4-5.8c0-1.7,0.6-3.1,1.8-4.2
				c1.2-1.1,2.9-1.9,5.2-2.5c-0.8-0.3-1.6-0.8-2.3-1.6c-0.7-0.8-0.9-1.6-0.9-2.5c0-1.1,0.3-1.9,1-2.7c0.7-0.7,1.7-1.4,3-2.1
				c-1.6-0.7-2.9-1.7-3.9-3s-1.4-3-1.4-5c0-3,1.1-5.4,3.3-7.1s5.3-2.5,9.4-2.5c0.8,0,1.9,0.1,3.1,0.3c1.2,0.2,1.9,0.3,2.3,0.3
				L580.7,217L580.7,217z M556.7,249.1c0,1,0.6,1.9,1.7,2.5c1.1,0.6,2.7,0.9,4.7,0.9c3,0,5.4-0.3,7.1-1.1c1.7-0.8,2.5-1.8,2.5-3.1
				c0-1-0.5-1.8-1.5-2.2s-2.6-0.6-4.7-0.6h-4.4c-1.5,0-2.9,0.3-3.9,1C557.2,247.1,556.7,248,556.7,249.1z M559.9,226.2
				c0,1.5,0.4,2.7,1.2,3.6c0.8,0.9,1.9,1.4,3.5,1.4c1.6,0,2.8-0.4,3.5-1.4c0.8-0.8,1.1-2.1,1.1-3.6c0-3.4-1.5-5.1-4.6-5.1
				C561.4,221.1,559.9,222.8,559.9,226.2z"/>
			<path id="XMLID_245_" class="st0" d="M599.9,245.7c-5,0-8.9-1.3-11.7-3.7c-2.8-2.5-4.2-6-4.2-10.6c0-4.7,1.3-8.4,3.9-10.9
				c2.6-2.5,6.2-3.9,10.8-3.9c4.4,0,7.8,1.1,10.2,3.4s3.6,5.4,3.6,9.4v3.7h-20c0.1,2.2,0.8,3.9,2.1,5.1c1.4,1.2,3.2,1.9,5.6,1.9
				c1.9,0,3.6-0.2,5.3-0.5s3.4-0.9,5.3-1.7v5.9c-1.4,0.7-3,1.2-4.7,1.5C604.4,245.6,602.3,245.7,599.9,245.7z M598.7,222
				c-1.8,0-3.2,0.5-4.2,1.5c-1,1-1.6,2.5-1.8,4.4h11.9c0-1.9-0.6-3.4-1.6-4.4C601.9,222.5,600.5,222,598.7,222z"/>
			<path id="XMLID_248_" class="st0" d="M648.1,245.2h-8.5v-16.4c0-2-0.4-3.6-1.2-4.6c-0.8-1-2-1.5-3.8-1.5c-2.4,0-4.1,0.7-5.2,2.1
				c-1,1.4-1.6,3.8-1.6,7.1v13.2h-8.5V217h6.4l1.1,3.6h0.5c0.9-1.4,2.3-2.4,3.9-3c1.7-0.7,3.6-1,5.7-1c3.6,0,6.4,0.8,8.2,2.6
				s2.8,4.3,2.8,7.7L648.1,245.2L648.1,245.2z"/>
			<path id="XMLID_250_" class="st0" d="M669.5,245.7c-9.7,0-14.5-4.8-14.5-14.4c0-4.7,1.4-8.5,4-10.9s6.4-3.8,11.3-3.8
				c3.6,0,6.8,0.7,9.7,1.9l-2.5,5.9c-1.4-0.5-2.5-0.8-3.7-1.2c-1.2-0.3-2.3-0.4-3.5-0.4c-4.4,0-6.6,2.9-6.6,8.5
				c0,5.5,2.2,8.3,6.6,8.3c1.6,0,3.1-0.2,4.5-0.6s2.8-1,4.1-1.9v6.6c-1.4,0.8-2.8,1.4-4.1,1.6S671.6,245.7,669.5,245.7z"/>
			<path id="XMLID_252_" class="st0" d="M681.6,217h9.3l5.8,15.8c0.5,1.4,0.8,3,1,4.9h0.2c0.2-1.7,0.6-3.4,1.2-4.9l5.8-15.8h9.1
				l-13.1,31.8c-1.2,3-2.9,5.2-5.2,6.6c-2.2,1.4-4.8,2.2-7.8,2.2c-1.4,0-2.9-0.2-4.3-0.4V251c1,0.3,2.1,0.3,3.3,0.3
				c1.5,0,2.8-0.4,3.9-1.3s2-2.1,2.6-3.7l0.5-1.4L681.6,217z"/>
		</g>
		<g>
			<path id="XMLID_89_" class="st0" d="M39.7,226.4c0,6.1-1.9,10.7-5.7,13.9c-3.8,3.2-9.3,4.8-16.5,4.8H6v-36.8h12.8
				c6.6,0,11.8,1.6,15.4,4.7C37.8,216.3,39.7,220.7,39.7,226.4z M30.7,226.6c0-7.9-3.8-11.9-11.5-11.9h-4.6v24h3.7
				C26.6,238.7,30.7,234.7,30.7,226.6z"/>
			<path id="XMLID_93_" class="st0" d="M47.1,209.7c0-2.5,1.5-3.7,4.6-3.7c3,0,4.6,1.3,4.6,3.7c0,1.2-0.4,2.1-1.2,2.8s-1.9,1-3.5,1
				C48.6,213.5,47.1,212.2,47.1,209.7z M55.9,245.2h-8.5v-28.1h8.5V245.2z"/>
			<path id="XMLID_97_" class="st0" d="M91.8,217v3.9L87,222c0.8,1.3,1.4,2.7,1.4,4.2c0,3-1.2,5.3-3.5,7c-2.3,1.7-5.6,2.5-9.7,2.5
				l-1.5-0.1l-1.3-0.1c-0.8,0.6-1.3,1.3-1.3,2c0,1.1,1.5,1.7,4.7,1.7H81c3.4,0,6,0.7,7.8,1.9c1.8,1.4,2.7,3.3,2.7,5.8
				c0,3.3-1.5,5.8-4.6,7.6c-3,1.8-7.4,2.7-13,2.7c-4.3,0-7.6-0.7-9.9-2c-2.3-1.4-3.4-3.3-3.4-5.8c0-1.7,0.6-3.1,1.8-4.2
				s2.9-1.9,5.2-2.5c-0.8-0.3-1.6-0.8-2.3-1.6c-0.7-0.8-0.9-1.6-0.9-2.5c0-1.1,0.3-1.9,1-2.7c0.7-0.7,1.7-1.4,3-2.1
				c-1.6-0.7-2.9-1.7-3.9-3s-1.4-3-1.4-5c0-3,1.1-5.4,3.3-7.1c2.2-1.7,5.3-2.5,9.4-2.5c0.8,0,1.9,0.1,3.1,0.3
				c1.2,0.2,1.9,0.3,2.3,0.3L91.8,217L91.8,217z M67.8,249.1c0,1,0.6,1.9,1.7,2.5c1.1,0.6,2.7,0.9,4.7,0.9c3,0,5.4-0.3,7.1-1.1
				c1.7-0.8,2.5-1.8,2.5-3.1c0-1-0.5-1.8-1.5-2.2s-2.6-0.6-4.7-0.6h-4.4c-1.5,0-2.9,0.3-3.9,1C68.4,247.1,67.8,248,67.8,249.1z
				 M71,226.2c0,1.5,0.4,2.7,1.2,3.6c0.8,0.9,1.9,1.4,3.5,1.4c1.6,0,2.8-0.4,3.5-1.4c0.8-0.8,1.1-2.1,1.1-3.6c0-3.4-1.5-5.1-4.6-5.1
				C72.5,221.1,71,222.8,71,226.2z"/>
			<path id="XMLID_101_" class="st0" d="M96.6,209.7c0-2.5,1.5-3.7,4.6-3.7c3,0,4.6,1.3,4.6,3.7c0,1.2-0.4,2.1-1.2,2.8s-1.9,1-3.5,1
				C98.1,213.5,96.6,212.2,96.6,209.7z M105.4,245.2H97v-28.1h8.5V245.2z"/>
			<path id="XMLID_104_" class="st0" d="M127.4,239.5c1.4,0,3.2-0.3,5.3-0.8v5.7c-2.1,0.8-4.7,1.3-7.8,1.3c-3.4,0-5.8-0.8-7.4-2.4
				s-2.3-3.9-2.3-7v-13.6h-4.1v-3.2l4.7-2.5l2.5-5.9h5.4v6h8.7v5.8h-8.7v13.6c0,1.1,0.3,1.9,1,2.5
				C125.4,239.3,126.3,239.5,127.4,239.5z"/>
			<path id="XMLID_106_" class="st0" d="M158.7,245.2l-1.6-3.8h-0.3c-1.4,1.6-2.9,2.8-4.4,3.4c-1.5,0.6-3.5,0.9-5.9,0.9
				c-3,0-5.3-0.8-7-2.3c-1.7-1.5-2.5-3.7-2.5-6.6c0-3,1.2-5.2,3.5-6.6c2.3-1.4,5.8-2.2,10.4-2.4l5.4-0.2v-1.3c0-2.9-1.6-4.3-4.8-4.3
				c-2.5,0-5.4,0.7-8.7,2l-2.8-5.2c3.6-1.7,7.5-2.5,11.9-2.5c4.1,0,7.4,0.8,9.6,2.5c2.2,1.6,3.3,4.1,3.3,7.5v18.8H158.7z
				 M156.2,232.1l-3.3,0.1c-2.5,0.1-4.3,0.5-5.5,1.2c-1.2,0.8-1.8,1.9-1.8,3.4c0,2.2,1.4,3.2,4.1,3.2c1.9,0,3.6-0.5,4.7-1.5
				c1.2-1,1.8-2.4,1.8-4.1L156.2,232.1L156.2,232.1z"/>
			<path id="XMLID_109_" class="st0" d="M181.8,245.2h-8.5V206h8.5V245.2z"/>
			<path id="XMLID_111_" class="st0" d="M223.3,245.2l-9.7-28.9h-0.3c0.3,5.8,0.5,9.8,0.5,11.8v17.1h-7.7v-36.8h11.7l9.6,28.1h0.2
				l10.2-28.1h11.7v36.8h-8v-17.4c0-0.8,0-1.8,0-2.9s0.2-3.9,0.3-8.6h-0.3l-10.5,28.8L223.3,245.2L223.3,245.2z"/>
			<path id="XMLID_113_" class="st0" d="M278.8,245.2l-1.6-3.8h-0.3c-1.4,1.6-2.9,2.8-4.4,3.4c-1.5,0.6-3.5,0.9-5.9,0.9
				c-3,0-5.3-0.8-7-2.3c-1.7-1.5-2.5-3.7-2.5-6.6c0-3,1.2-5.2,3.5-6.6c2.3-1.4,5.8-2.2,10.4-2.4l5.4-0.2v-1.3c0-2.9-1.6-4.3-4.8-4.3
				c-2.5,0-5.4,0.7-8.7,2l-2.8-5.2c3.6-1.7,7.5-2.5,11.9-2.5c4.1,0,7.4,0.8,9.6,2.5c2.2,1.6,3.3,4.1,3.3,7.5v18.8H278.8z
				 M276.3,232.1l-3.3,0.1c-2.5,0.1-4.3,0.5-5.5,1.2c-1.2,0.8-1.8,1.9-1.8,3.4c0,2.2,1.4,3.2,4.1,3.2c1.9,0,3.6-0.5,4.7-1.5
				c1.2-1,1.8-2.4,1.8-4.1L276.3,232.1L276.3,232.1z"/>
			<path id="XMLID_116_" class="st0" d="M310.8,216.5c1.2,0,2.1,0.1,2.9,0.3l-0.7,7.2c-0.7-0.2-1.5-0.3-2.5-0.3
				c-2.7,0-4.8,0.6-6.4,1.9c-1.5,1.3-2.3,3-2.3,5.3v14.3h-8.5V217h6.4l1.3,4.7h0.4c0.9-1.6,2.3-2.9,3.9-3.8
				C307.1,217,308.8,216.5,310.8,216.5z"/>
			<path id="XMLID_119_" class="st0" d="M327.4,229.8l3.7-4.3l8.7-8.6h9.6L337,229.2l13,15.9h-9.7l-9-11.3l-3.6,2.6v8.7h-8.5v-39.2
				h8.5v17.4L327.4,229.8L327.4,229.8L327.4,229.8z"/>
			<path id="XMLID_121_" class="st0" d="M368.6,245.7c-5,0-8.9-1.3-11.7-3.7c-2.8-2.5-4.2-6-4.2-10.6c0-4.7,1.3-8.4,3.9-10.9
				c2.6-2.5,6.2-3.9,10.8-3.9c4.4,0,7.8,1.1,10.2,3.4c2.5,2.3,3.6,5.4,3.6,9.4v3.7h-20c0.1,2.2,0.8,3.9,2.1,5.1
				c1.4,1.2,3.2,1.9,5.6,1.9c1.9,0,3.6-0.2,5.3-0.5s3.4-0.9,5.3-1.7v5.9c-1.4,0.7-3,1.2-4.7,1.5C373,245.6,371,245.7,368.6,245.7z
				 M367.4,222c-1.8,0-3.2,0.5-4.2,1.5c-1,1-1.6,2.5-1.8,4.4h11.9c0-1.9-0.6-3.4-1.6-4.4C370.6,222.5,369.1,222,367.4,222z"/>
			<path id="XMLID_124_" class="st0" d="M401.2,239.5c1.4,0,3.2-0.3,5.3-0.8v5.7c-2.1,0.8-4.7,1.3-7.8,1.3c-3.4,0-5.8-0.8-7.4-2.4
				c-1.5-1.6-2.3-3.9-2.3-7v-13.6h-4.1v-3.2l4.7-2.5l2.5-5.9h5.4v6h8.7v5.8h-8.7v13.6c0,1.1,0.3,1.9,1,2.5
				C399.3,239.3,400.1,239.5,401.2,239.5z"/>
			<path id="XMLID_126_" class="st0" d="M412.4,209.7c0-2.5,1.5-3.7,4.6-3.7c3,0,4.6,1.3,4.6,3.7c0,1.2-0.4,2.1-1.2,2.8
				c-0.8,0.7-1.9,1-3.5,1C414,213.5,412.4,212.2,412.4,209.7z M421.3,245.2h-8.5v-28.1h8.5V245.2z"/>
			<path id="XMLID_129_" class="st0" d="M458.8,245.2h-8.5v-16.4c0-2-0.4-3.6-1.2-4.6c-0.8-1-2-1.5-3.8-1.5c-2.4,0-4.1,0.7-5.2,2.1
				c-1,1.4-1.6,3.8-1.6,7.1v13.2h-8.5V217h6.4l1.1,3.6h0.5c0.9-1.4,2.3-2.4,3.9-3c1.7-0.7,3.6-1,5.7-1c3.6,0,6.4,0.8,8.2,2.6
				c1.9,1.8,2.8,4.3,2.8,7.7L458.8,245.2L458.8,245.2z"/>
			<path id="XMLID_131_" class="st0" d="M494.6,217v3.9l-4.8,1.1c0.8,1.3,1.4,2.7,1.4,4.2c0,3-1.2,5.3-3.5,7s-5.6,2.5-9.7,2.5
				l-1.5-0.1l-1.3-0.1c-0.8,0.6-1.3,1.3-1.3,2c0,1.1,1.5,1.7,4.7,1.7h5.3c3.4,0,6,0.7,7.8,1.9c1.8,1.4,2.7,3.3,2.7,5.8
				c0,3.3-1.5,5.8-4.6,7.6c-3,1.8-7.4,2.7-13,2.7c-4.3,0-7.6-0.7-9.9-2c-2.3-1.4-3.4-3.3-3.4-5.8c0-1.7,0.6-3.1,1.8-4.2
				s2.9-1.9,5.2-2.5c-0.8-0.3-1.6-0.8-2.3-1.6c-0.7-0.8-0.9-1.6-0.9-2.5c0-1.1,0.3-1.9,1-2.7c0.7-0.7,1.7-1.4,3-2.1
				c-1.6-0.7-2.9-1.7-3.9-3s-1.4-3-1.4-5c0-3,1.1-5.4,3.3-7.1c2.2-1.7,5.3-2.5,9.4-2.5c0.8,0,1.9,0.1,3.1,0.3
				c1.2,0.2,1.9,0.3,2.3,0.3L494.6,217L494.6,217z M470.6,249.1c0,1,0.6,1.9,1.7,2.5c1.1,0.6,2.7,0.9,4.7,0.9c3,0,5.4-0.3,7.1-1.1
				c1.7-0.8,2.5-1.8,2.5-3.1c0-1-0.5-1.8-1.5-2.2c-1-0.4-2.6-0.6-4.7-0.6H476c-1.5,0-2.9,0.3-3.9,1
				C471.1,247.1,470.6,248,470.6,249.1z M473.7,226.2c0,1.5,0.4,2.7,1.2,3.6c0.8,0.9,1.9,1.4,3.5,1.4c1.6,0,2.8-0.4,3.5-1.4
				c0.8-0.8,1.1-2.1,1.1-3.6c0-3.4-1.5-5.1-4.6-5.1C475.3,221.1,473.7,222.8,473.7,226.2z"/>
			<path id="XMLID_155_" class="st0" d="M540,245.2l-3-8.7h-14.8l-3,8.7h-9.3l14.3-36.9h10.5l14.4,36.9H540z M535,229.8
				c-2.7-8-4.2-12.4-4.6-13.5c-0.3-1-0.6-1.9-0.8-2.5c-0.6,2.1-2.4,7.5-5.3,15.9H535z"/>
			<path id="XMLID_175_" class="st0" d="M580.7,217v3.9l-4.8,1.1c0.8,1.3,1.4,2.7,1.4,4.2c0,3-1.2,5.3-3.5,7s-5.6,2.5-9.7,2.5
				l-1.5-0.1l-1.3-0.1c-0.8,0.6-1.3,1.3-1.3,2c0,1.1,1.5,1.7,4.7,1.7h5.3c3.4,0,6,0.7,7.8,1.9c1.8,1.4,2.7,3.3,2.7,5.8
				c0,3.3-1.5,5.8-4.6,7.6c-3,1.8-7.4,2.7-13,2.7c-4.3,0-7.6-0.7-9.9-2s-3.4-3.3-3.4-5.8c0-1.7,0.6-3.1,1.8-4.2
				c1.2-1.1,2.9-1.9,5.2-2.5c-0.8-0.3-1.6-0.8-2.3-1.6c-0.7-0.8-0.9-1.6-0.9-2.5c0-1.1,0.3-1.9,1-2.7c0.7-0.7,1.7-1.4,3-2.1
				c-1.6-0.7-2.9-1.7-3.9-3s-1.4-3-1.4-5c0-3,1.1-5.4,3.3-7.1s5.3-2.5,9.4-2.5c0.8,0,1.9,0.1,3.1,0.3c1.2,0.2,1.9,0.3,2.3,0.3
				L580.7,217L580.7,217z M556.7,249.1c0,1,0.6,1.9,1.7,2.5c1.1,0.6,2.7,0.9,4.7,0.9c3,0,5.4-0.3,7.1-1.1c1.7-0.8,2.5-1.8,2.5-3.1
				c0-1-0.5-1.8-1.5-2.2s-2.6-0.6-4.7-0.6h-4.4c-1.5,0-2.9,0.3-3.9,1C557.2,247.1,556.7,248,556.7,249.1z M559.9,226.2
				c0,1.5,0.4,2.7,1.2,3.6c0.8,0.9,1.9,1.4,3.5,1.4c1.6,0,2.8-0.4,3.5-1.4c0.8-0.8,1.1-2.1,1.1-3.6c0-3.4-1.5-5.1-4.6-5.1
				C561.4,221.1,559.9,222.8,559.9,226.2z"/>
			<path id="XMLID_179_" class="st0" d="M599.9,245.7c-5,0-8.9-1.3-11.7-3.7c-2.8-2.5-4.2-6-4.2-10.6c0-4.7,1.3-8.4,3.9-10.9
				c2.6-2.5,6.2-3.9,10.8-3.9c4.4,0,7.8,1.1,10.2,3.4s3.6,5.4,3.6,9.4v3.7h-20c0.1,2.2,0.8,3.9,2.1,5.1c1.4,1.2,3.2,1.9,5.6,1.9
				c1.9,0,3.6-0.2,5.3-0.5s3.4-0.9,5.3-1.7v5.9c-1.4,0.7-3,1.2-4.7,1.5C604.4,245.6,602.3,245.7,599.9,245.7z M598.7,222
				c-1.8,0-3.2,0.5-4.2,1.5c-1,1-1.6,2.5-1.8,4.4h11.9c0-1.9-0.6-3.4-1.6-4.4C601.9,222.5,600.5,222,598.7,222z"/>
			<path id="XMLID_182_" class="st0" d="M648.1,245.2h-8.5v-16.4c0-2-0.4-3.6-1.2-4.6c-0.8-1-2-1.5-3.8-1.5c-2.4,0-4.1,0.7-5.2,2.1
				c-1,1.4-1.6,3.8-1.6,7.1v13.2h-8.5V217h6.4l1.1,3.6h0.5c0.9-1.4,2.3-2.4,3.9-3c1.7-0.7,3.6-1,5.7-1c3.6,0,6.4,0.8,8.2,2.6
				s2.8,4.3,2.8,7.7L648.1,245.2L648.1,245.2z"/>
			<path id="XMLID_184_" class="st0" d="M669.5,245.7c-9.7,0-14.5-4.8-14.5-14.4c0-4.7,1.4-8.5,4-10.9s6.4-3.8,11.3-3.8
				c3.6,0,6.8,0.7,9.7,1.9l-2.5,5.9c-1.4-0.5-2.5-0.8-3.7-1.2c-1.2-0.3-2.3-0.4-3.5-0.4c-4.4,0-6.6,2.9-6.6,8.5
				c0,5.5,2.2,8.3,6.6,8.3c1.6,0,3.1-0.2,4.5-0.6s2.8-1,4.1-1.9v6.6c-1.4,0.8-2.8,1.4-4.1,1.6S671.6,245.7,669.5,245.7z"/>
			<path id="XMLID_187_" class="st0" d="M681.6,217h9.3l5.8,15.8c0.5,1.4,0.8,3,1,4.9h0.2c0.2-1.7,0.6-3.4,1.2-4.9l5.8-15.8h9.1
				l-13.1,31.8c-1.2,3-2.9,5.2-5.2,6.6c-2.2,1.4-4.8,2.2-7.8,2.2c-1.4,0-2.9-0.2-4.3-0.4V251c1,0.3,2.1,0.3,3.3,0.3
				c1.5,0,2.8-0.4,3.9-1.3s2-2.1,2.6-3.7l0.5-1.4L681.6,217z"/>
		</g>
		<g id="XMLID_27_">
			<path id="XMLID_2_" class="st0" d="M39.7,226.4c0,6.1-1.9,10.7-5.7,13.9c-3.8,3.2-9.3,4.8-16.5,4.8H6v-36.8h12.8
				c6.6,0,11.8,1.6,15.4,4.7C37.8,216.3,39.7,220.7,39.7,226.4z M30.7,226.6c0-7.9-3.8-11.9-11.5-11.9h-4.6v24h3.7
				C26.6,238.7,30.7,234.7,30.7,226.6z"/>
			<path id="XMLID_5_" class="st0" d="M47.1,209.7c0-2.5,1.5-3.7,4.6-3.7c3,0,4.6,1.3,4.6,3.7c0,1.2-0.4,2.1-1.2,2.8s-1.9,1-3.5,1
				C48.6,213.5,47.1,212.2,47.1,209.7z M55.9,245.2h-8.5v-28.1h8.5V245.2z"/>
			<path id="XMLID_16_" class="st0" d="M91.8,217v3.9L87,222c0.8,1.3,1.4,2.7,1.4,4.2c0,3-1.2,5.3-3.5,7c-2.3,1.7-5.6,2.5-9.7,2.5
				l-1.5-0.1l-1.3-0.1c-0.8,0.6-1.3,1.3-1.3,2c0,1.1,1.5,1.7,4.7,1.7H81c3.4,0,6,0.7,7.8,1.9c1.8,1.4,2.7,3.3,2.7,5.8
				c0,3.3-1.5,5.8-4.6,7.6c-3,1.8-7.4,2.7-13,2.7c-4.3,0-7.6-0.7-9.9-2c-2.3-1.4-3.4-3.3-3.4-5.8c0-1.7,0.6-3.1,1.8-4.2
				s2.9-1.9,5.2-2.5c-0.8-0.3-1.6-0.8-2.3-1.6c-0.7-0.8-0.9-1.6-0.9-2.5c0-1.1,0.3-1.9,1-2.7c0.7-0.7,1.7-1.4,3-2.1
				c-1.6-0.7-2.9-1.7-3.9-3s-1.4-3-1.4-5c0-3,1.1-5.4,3.3-7.1c2.2-1.7,5.3-2.5,9.4-2.5c0.8,0,1.9,0.1,3.1,0.3
				c1.2,0.2,1.9,0.3,2.3,0.3L91.8,217L91.8,217z M67.8,249.1c0,1,0.6,1.9,1.7,2.5c1.1,0.6,2.7,0.9,4.7,0.9c3,0,5.4-0.3,7.1-1.1
				c1.7-0.8,2.5-1.8,2.5-3.1c0-1-0.5-1.8-1.5-2.2s-2.6-0.6-4.7-0.6h-4.4c-1.5,0-2.9,0.3-3.9,1C68.4,247.1,67.8,248,67.8,249.1z
				 M71,226.2c0,1.5,0.4,2.7,1.2,3.6c0.8,0.9,1.9,1.4,3.5,1.4c1.6,0,2.8-0.4,3.5-1.4c0.8-0.8,1.1-2.1,1.1-3.6c0-3.4-1.5-5.1-4.6-5.1
				C72.5,221.1,71,222.8,71,226.2z"/>
			<path id="XMLID_25_" class="st0" d="M96.6,209.7c0-2.5,1.5-3.7,4.6-3.7c3,0,4.6,1.3,4.6,3.7c0,1.2-0.4,2.1-1.2,2.8s-1.9,1-3.5,1
				C98.1,213.5,96.6,212.2,96.6,209.7z M105.4,245.2H97v-28.1h8.5V245.2z"/>
			<path id="XMLID_29_" class="st0" d="M127.4,239.5c1.4,0,3.2-0.3,5.3-0.8v5.7c-2.1,0.8-4.7,1.3-7.8,1.3c-3.4,0-5.8-0.8-7.4-2.4
				s-2.3-3.9-2.3-7v-13.6h-4.1v-3.2l4.7-2.5l2.5-5.9h5.4v6h8.7v5.8h-8.7v13.6c0,1.1,0.3,1.9,1,2.5
				C125.4,239.3,126.3,239.5,127.4,239.5z"/>
			<path id="XMLID_31_" class="st0" d="M158.7,245.2l-1.6-3.8h-0.3c-1.4,1.6-2.9,2.8-4.4,3.4c-1.5,0.6-3.5,0.9-5.9,0.9
				c-3,0-5.3-0.8-7-2.3c-1.7-1.5-2.5-3.7-2.5-6.6c0-3,1.2-5.2,3.5-6.6c2.3-1.4,5.8-2.2,10.4-2.4l5.4-0.2v-1.3c0-2.9-1.6-4.3-4.8-4.3
				c-2.5,0-5.4,0.7-8.7,2l-2.8-5.2c3.6-1.7,7.5-2.5,11.9-2.5c4.1,0,7.4,0.8,9.6,2.5c2.2,1.6,3.3,4.1,3.3,7.5v18.8H158.7z
				 M156.2,232.1l-3.3,0.1c-2.5,0.1-4.3,0.5-5.5,1.2c-1.2,0.8-1.8,1.9-1.8,3.4c0,2.2,1.4,3.2,4.1,3.2c1.9,0,3.6-0.5,4.7-1.5
				c1.2-1,1.8-2.4,1.8-4.1L156.2,232.1L156.2,232.1z"/>
			<path id="XMLID_34_" class="st0" d="M181.8,245.2h-8.5V206h8.5V245.2z"/>
			<path id="XMLID_36_" class="st0" d="M223.3,245.2l-9.7-28.9h-0.3c0.3,5.8,0.5,9.8,0.5,11.8v17.1h-7.7v-36.8h11.7l9.6,28.1h0.2
				l10.2-28.1h11.7v36.8h-8v-17.4c0-0.8,0-1.8,0-2.9s0.2-3.9,0.3-8.6h-0.3l-10.5,28.8L223.3,245.2L223.3,245.2z"/>
			<path id="XMLID_38_" class="st0" d="M278.8,245.2l-1.6-3.8h-0.3c-1.4,1.6-2.9,2.8-4.4,3.4c-1.5,0.6-3.5,0.9-5.9,0.9
				c-3,0-5.3-0.8-7-2.3c-1.7-1.5-2.5-3.7-2.5-6.6c0-3,1.2-5.2,3.5-6.6c2.3-1.4,5.8-2.2,10.4-2.4l5.4-0.2v-1.3c0-2.9-1.6-4.3-4.8-4.3
				c-2.5,0-5.4,0.7-8.7,2l-2.8-5.2c3.6-1.7,7.5-2.5,11.9-2.5c4.1,0,7.4,0.8,9.6,2.5c2.2,1.6,3.3,4.1,3.3,7.5v18.8H278.8z
				 M276.3,232.1l-3.3,0.1c-2.5,0.1-4.3,0.5-5.5,1.2c-1.2,0.8-1.8,1.9-1.8,3.4c0,2.2,1.4,3.2,4.1,3.2c1.9,0,3.6-0.5,4.7-1.5
				c1.2-1,1.8-2.4,1.8-4.1L276.3,232.1L276.3,232.1z"/>
			<path id="XMLID_54_" class="st0" d="M310.8,216.5c1.2,0,2.1,0.1,2.9,0.3l-0.7,7.2c-0.7-0.2-1.5-0.3-2.5-0.3
				c-2.7,0-4.8,0.6-6.4,1.9c-1.5,1.3-2.3,3-2.3,5.3v14.3h-8.5V217h6.4l1.3,4.7h0.4c0.9-1.6,2.3-2.9,3.9-3.8
				C307.1,217,308.8,216.5,310.8,216.5z"/>
			<path id="XMLID_56_" class="st0" d="M327.4,229.8l3.7-4.3l8.7-8.6h9.6L337,229.2l13,15.9h-9.7l-9-11.3l-3.6,2.6v8.7h-8.5v-39.2
				h8.5v17.4L327.4,229.8L327.4,229.8L327.4,229.8z"/>
			<path id="XMLID_58_" class="st0" d="M368.6,245.7c-5,0-8.9-1.3-11.7-3.7c-2.8-2.5-4.2-6-4.2-10.6c0-4.7,1.3-8.4,3.9-10.9
				c2.6-2.5,6.2-3.9,10.8-3.9c4.4,0,7.8,1.1,10.2,3.4c2.5,2.3,3.6,5.4,3.6,9.4v3.7h-20c0.1,2.2,0.8,3.9,2.1,5.1
				c1.4,1.2,3.2,1.9,5.6,1.9c1.9,0,3.6-0.2,5.3-0.5s3.4-0.9,5.3-1.7v5.9c-1.4,0.7-3,1.2-4.7,1.5C373,245.6,371,245.7,368.6,245.7z
				 M367.4,222c-1.8,0-3.2,0.5-4.2,1.5c-1,1-1.6,2.5-1.8,4.4h11.9c0-1.9-0.6-3.4-1.6-4.4C370.6,222.5,369.1,222,367.4,222z"/>
			<path id="XMLID_61_" class="st0" d="M401.2,239.5c1.4,0,3.2-0.3,5.3-0.8v5.7c-2.1,0.8-4.7,1.3-7.8,1.3c-3.4,0-5.8-0.8-7.4-2.4
				c-1.5-1.6-2.3-3.9-2.3-7v-13.6h-4.1v-3.2l4.7-2.5l2.5-5.9h5.4v6h8.7v5.8h-8.7v13.6c0,1.1,0.3,1.9,1,2.5
				C399.3,239.3,400.1,239.5,401.2,239.5z"/>
			<path id="XMLID_63_" class="st0" d="M412.4,209.7c0-2.5,1.5-3.7,4.6-3.7c3,0,4.6,1.3,4.6,3.7c0,1.2-0.4,2.1-1.2,2.8
				c-0.8,0.7-1.9,1-3.5,1C414,213.5,412.4,212.2,412.4,209.7z M421.3,245.2h-8.5v-28.1h8.5V245.2z"/>
			<path id="XMLID_66_" class="st0" d="M458.8,245.2h-8.5v-16.4c0-2-0.4-3.6-1.2-4.6c-0.8-1-2-1.5-3.8-1.5c-2.4,0-4.1,0.7-5.2,2.1
				c-1,1.4-1.6,3.8-1.6,7.1v13.2h-8.5V217h6.4l1.1,3.6h0.5c0.9-1.4,2.3-2.4,3.9-3c1.7-0.7,3.6-1,5.7-1c3.6,0,6.4,0.8,8.2,2.6
				c1.9,1.8,2.8,4.3,2.8,7.7L458.8,245.2L458.8,245.2z"/>
			<path id="XMLID_68_" class="st0" d="M494.6,217v3.9l-4.8,1.1c0.8,1.3,1.4,2.7,1.4,4.2c0,3-1.2,5.3-3.5,7s-5.6,2.5-9.7,2.5
				l-1.5-0.1l-1.3-0.1c-0.8,0.6-1.3,1.3-1.3,2c0,1.1,1.5,1.7,4.7,1.7h5.3c3.4,0,6,0.7,7.8,1.9c1.8,1.4,2.7,3.3,2.7,5.8
				c0,3.3-1.5,5.8-4.6,7.6c-3,1.8-7.4,2.7-13,2.7c-4.3,0-7.6-0.7-9.9-2c-2.3-1.4-3.4-3.3-3.4-5.8c0-1.7,0.6-3.1,1.8-4.2
				s2.9-1.9,5.2-2.5c-0.8-0.3-1.6-0.8-2.3-1.6c-0.7-0.8-0.9-1.6-0.9-2.5c0-1.1,0.3-1.9,1-2.7c0.7-0.7,1.7-1.4,3-2.1
				c-1.6-0.7-2.9-1.7-3.9-3s-1.4-3-1.4-5c0-3,1.1-5.4,3.3-7.1c2.2-1.7,5.3-2.5,9.4-2.5c0.8,0,1.9,0.1,3.1,0.3
				c1.2,0.2,1.9,0.3,2.3,0.3L494.6,217L494.6,217z M470.6,249.1c0,1,0.6,1.9,1.7,2.5c1.1,0.6,2.7,0.9,4.7,0.9c3,0,5.4-0.3,7.1-1.1
				c1.7-0.8,2.5-1.8,2.5-3.1c0-1-0.5-1.8-1.5-2.2c-1-0.4-2.6-0.6-4.7-0.6H476c-1.5,0-2.9,0.3-3.9,1
				C471.1,247.1,470.6,248,470.6,249.1z M473.7,226.2c0,1.5,0.4,2.7,1.2,3.6c0.8,0.9,1.9,1.4,3.5,1.4c1.6,0,2.8-0.4,3.5-1.4
				c0.8-0.8,1.1-2.1,1.1-3.6c0-3.4-1.5-5.1-4.6-5.1C475.3,221.1,473.7,222.8,473.7,226.2z"/>
			<path id="XMLID_72_" class="st0" d="M540,245.2l-3-8.7h-14.8l-3,8.7h-9.3l14.3-36.9h10.5l14.4,36.9H540z M535,229.8
				c-2.7-8-4.2-12.4-4.6-13.5c-0.3-1-0.6-1.9-0.8-2.5c-0.6,2.1-2.4,7.5-5.3,15.9H535z"/>
			<path id="XMLID_75_" class="st0" d="M580.7,217v3.9l-4.8,1.1c0.8,1.3,1.4,2.7,1.4,4.2c0,3-1.2,5.3-3.5,7s-5.6,2.5-9.7,2.5
				l-1.5-0.1l-1.3-0.1c-0.8,0.6-1.3,1.3-1.3,2c0,1.1,1.5,1.7,4.7,1.7h5.3c3.4,0,6,0.7,7.8,1.9c1.8,1.4,2.7,3.3,2.7,5.8
				c0,3.3-1.5,5.8-4.6,7.6c-3,1.8-7.4,2.7-13,2.7c-4.3,0-7.6-0.7-9.9-2s-3.4-3.3-3.4-5.8c0-1.7,0.6-3.1,1.8-4.2
				c1.2-1.1,2.9-1.9,5.2-2.5c-0.8-0.3-1.6-0.8-2.3-1.6c-0.7-0.8-0.9-1.6-0.9-2.5c0-1.1,0.3-1.9,1-2.7c0.7-0.7,1.7-1.4,3-2.1
				c-1.6-0.7-2.9-1.7-3.9-3s-1.4-3-1.4-5c0-3,1.1-5.4,3.3-7.1s5.3-2.5,9.4-2.5c0.8,0,1.9,0.1,3.1,0.3c1.2,0.2,1.9,0.3,2.3,0.3
				L580.7,217L580.7,217z M556.7,249.1c0,1,0.6,1.9,1.7,2.5c1.1,0.6,2.7,0.9,4.7,0.9c3,0,5.4-0.3,7.1-1.1c1.7-0.8,2.5-1.8,2.5-3.1
				c0-1-0.5-1.8-1.5-2.2s-2.6-0.6-4.7-0.6h-4.4c-1.5,0-2.9,0.3-3.9,1C557.2,247.1,556.7,248,556.7,249.1z M559.9,226.2
				c0,1.5,0.4,2.7,1.2,3.6c0.8,0.9,1.9,1.4,3.5,1.4c1.6,0,2.8-0.4,3.5-1.4c0.8-0.8,1.1-2.1,1.1-3.6c0-3.4-1.5-5.1-4.6-5.1
				C561.4,221.1,559.9,222.8,559.9,226.2z"/>
			<path id="XMLID_79_" class="st0" d="M599.9,245.7c-5,0-8.9-1.3-11.7-3.7c-2.8-2.5-4.2-6-4.2-10.6c0-4.7,1.3-8.4,3.9-10.9
				c2.6-2.5,6.2-3.9,10.8-3.9c4.4,0,7.8,1.1,10.2,3.4s3.6,5.4,3.6,9.4v3.7h-20c0.1,2.2,0.8,3.9,2.1,5.1c1.4,1.2,3.2,1.9,5.6,1.9
				c1.9,0,3.6-0.2,5.3-0.5s3.4-0.9,5.3-1.7v5.9c-1.4,0.7-3,1.2-4.7,1.5C604.4,245.6,602.3,245.7,599.9,245.7z M598.7,222
				c-1.8,0-3.2,0.5-4.2,1.5c-1,1-1.6,2.5-1.8,4.4h11.9c0-1.9-0.6-3.4-1.6-4.4C601.9,222.5,600.5,222,598.7,222z"/>
			<path id="XMLID_82_" class="st0" d="M648.1,245.2h-8.5v-16.4c0-2-0.4-3.6-1.2-4.6c-0.8-1-2-1.5-3.8-1.5c-2.4,0-4.1,0.7-5.2,2.1
				c-1,1.4-1.6,3.8-1.6,7.1v13.2h-8.5V217h6.4l1.1,3.6h0.5c0.9-1.4,2.3-2.4,3.9-3c1.7-0.7,3.6-1,5.7-1c3.6,0,6.4,0.8,8.2,2.6
				s2.8,4.3,2.8,7.7L648.1,245.2L648.1,245.2z"/>
			<path id="XMLID_84_" class="st0" d="M669.5,245.7c-9.7,0-14.5-4.8-14.5-14.4c0-4.7,1.4-8.5,4-10.9s6.4-3.8,11.3-3.8
				c3.6,0,6.8,0.7,9.7,1.9l-2.5,5.9c-1.4-0.5-2.5-0.8-3.7-1.2c-1.2-0.3-2.3-0.4-3.5-0.4c-4.4,0-6.6,2.9-6.6,8.5
				c0,5.5,2.2,8.3,6.6,8.3c1.6,0,3.1-0.2,4.5-0.6s2.8-1,4.1-1.9v6.6c-1.4,0.8-2.8,1.4-4.1,1.6S671.6,245.7,669.5,245.7z"/>
			<path id="XMLID_86_" class="st0" d="M681.6,217h9.3l5.8,15.8c0.5,1.4,0.8,3,1,4.9h0.2c0.2-1.7,0.6-3.4,1.2-4.9l5.8-15.8h9.1
				l-13.1,31.8c-1.2,3-2.9,5.2-5.2,6.6c-2.2,1.4-4.8,2.2-7.8,2.2c-1.4,0-2.9-0.2-4.3-0.4V251c1,0.3,2.1,0.3,3.3,0.3
				c1.5,0,2.8-0.4,3.9-1.3s2-2.1,2.6-3.7l0.5-1.4L681.6,217z"/>
		</g>
	</g>
</g>
</svg>
