<?xml version="1.0" encoding="utf-8"?>
<!-- Generator: Adobe Illustrator 23.0.3, SVG Export Plug-In . SVG Version: 6.00 Build 0)  -->
<svg version="1.1" id="Layer_1" xmlns="http://www.w3.org/2000/svg" xmlns:xlink="http://www.w3.org/1999/xlink" x="0px" y="0px"
	 viewBox="0 0 926 345.9" style="enable-background:new 0 0 926 345.9;" xml:space="preserve">
<style type="text/css">
	.st0{fill:#182C35;}
	.st1{fill:#0071BC;}
	.st2{fill:#F2F2F2;}
	.st3{fill:#CED8D7;}
	.st4{fill:#F58B1E;}
	.st5{fill:#1A1A1A;}
	.st6{fill:#9DE5F9;}
	.st7{fill:#F1F1F2;}
	.st8{fill:#F58A1F;}
</style>
<g id="XMLID_7_">
	<g id="XMLID_44_">
		<g>
			<path id="XMLID_210_" class="st2" d="M83,164V69H54v117h95v-22H83z"/>
			<path id="XMLID_202_" class="st2" d="M238.7,102.4c-8.1-6.6-19.9-9.8-35-9.8c-7.9,0-15.6,0.9-23.1,2.8
				c-7.5,1.9-13.9,4.5-19.2,7.9l10.2,18c3.5-2.5,7.8-4.6,12.9-6c5-1.5,10.2-2.2,15.4-2.2c7.5,0,13.2,2.7,16.9,5.7
				c3.7,3,5.6,9.2,5.6,14.2h-22.6c-14.3,0-24.9,1.2-31.8,5.9c-6.9,4.7-10.3,10.6-10.3,18.9c0,5.2,1.5,9.5,4.4,13.6
				c2.9,4.1,7.1,7.1,12.7,9.4c5.5,2.3,12,3.4,19.5,3.4c14.6,0,22.8-4.2,29.8-12.5V186h27v-53.9C251,118.9,246.8,109,238.7,102.4z
				 M222,154.7c-3,4-4.1,7-7.9,9c-3.7,2-8,3-12.8,3c-5,0-8.9-0.9-11.7-2.9c-2.8-1.9-4.3-3.4-4.3-6.7c0-6.9,5.8-9.2,17.5-9.2H222
				V154.7z"/>
		</g>
	</g>
	<g id="XMLID_8_">
		<path id="XMLID_10_" class="st2" d="M796.9,28H266.3v202h530.6c27.9,0,53.2-11.5,71.5-29.8c18.3-18.3,29.6-43.4,29.6-71.3
			C898,73.1,852.7,28,796.9,28z M846.7,94.4H870c4.9,10.4,7.7,21.9,7.7,34.2c0,12.2-2.8,23.8-7.7,34.2h-23.3V94.4z M831.9,162.8
			h-68.3V94.4h68.3V162.8z M860.9,79.6h-14.2V65.4C852,69.5,856.8,74.3,860.9,79.6z M797.7,48.6c12.2,0,23.8,2.8,34.2,7.7v23.3
			h-68.3V56.2C773.9,51.3,785.5,48.6,797.7,48.6z M748.7,65.4v14.2h-14.2C738.6,74.3,743.4,69.5,748.7,65.4z M315.4,146.7
			c3.2,5.2,7.7,9.3,13.5,12.2c5.8,2.9,12.4,4.4,19.7,4.4c11.9,0,21.9-4.3,29.9-12.8l17.7,14.8c-5.7,6.3-12.7,11-21.1,14.3
			c-8.4,3.3-17.7,4.9-28,4.9c-12.1,0-23.1-2.4-32.9-7.2c-9.8-4.8-17.5-11.4-23.1-19.9c-5.6-8.5-8.4-18.1-8.4-28.7s2.8-20.2,8.4-28.7
			c5.6-8.5,13.3-15.1,23.1-19.9c9.8-4.8,20.8-7.2,33.1-7.2c10.3,0,19.6,1.7,27.9,4.9c8.3,3.3,15.3,8,21,14.2L378.5,107
			c-8.1-8.4-18-12.6-29.9-12.6c-7.4,0-13.9,1.5-19.7,4.4c-5.8,2.9-10.3,7-13.5,12.2c-3.2,5.2-4.8,11.2-4.8,17.9
			C310.5,135.5,312.1,141.5,315.4,146.7z M508.7,163.4c-4.3,6.5-10.2,11.5-17.8,15.2c-7.6,3.7-16.2,5.5-25.8,5.5
			c-9.6,0-18.3-1.8-25.9-5.5c-7.6-3.6-13.6-8.7-17.9-15.2c-4.3-6.5-6.4-13.8-6.4-22c0-8.2,2.1-15.6,6.4-22
			c4.3-6.5,10.3-11.5,17.9-15.2c7.6-3.7,16.3-5.5,25.9-5.5c9.6,0,18.2,1.8,25.8,5.5c7.6,3.7,13.5,8.7,17.8,15.2
			c4.3,6.5,6.5,13.8,6.5,22C515.1,149.6,513,156.9,508.7,163.4z M687.4,183.8h-26.8V139c0-6.6-1.3-11.5-4.3-14.7
			c-3-3.2-7.1-4.9-12.6-4.9c-6.2,0-11,1.8-14.6,5.5c-3.6,3.7-5,9.1-5,16.3v42.6h-26.8V139c0-13-6.3-19.6-17.9-19.6
			c-6.1,0-11.5,1.8-15.1,5.5c-3.6,3.7-5.9,9.1-5.9,16.3v42.6h-26.8V101h26.8v8.4c2.4-3.5,7.4-6.2,12.4-8c4.9-1.8,10.2-2.8,16.1-2.8
			c6.4,0,12.3,1.2,17.5,3.5c5.2,2.3,9.4,5.7,12.6,10.1c3.7-4.3,8.5-7.7,14.2-10c5.7-2.4,12-3.6,18.8-3.6c11.5,0,20.6,3.1,27.3,9.2
			c6.7,6.1,10.1,15.3,10.1,27.5V183.8z M725.3,94.4h23.3v68.3h-23.3c-4.9-10.4-7.7-21.9-7.7-34.2
			C717.7,116.4,720.4,104.8,725.3,94.4z M734.5,177.6h14.2v14.2C743.4,187.7,738.6,182.9,734.5,177.6z M763.5,200.9v-23.3h68.3v23.3
			c-10.4,4.9-21.9,7.7-34.2,7.7C785.5,208.6,773.9,205.9,763.5,200.9z M846.7,191.8v-14.2h14.2C856.8,182.9,852,187.7,846.7,191.8z"
			/>
		<path id="XMLID_9_" class="st2" d="M465,118.4c-6.8,0-12.4,2.1-16.8,6.2c-4.4,4.2-6.6,9.7-6.6,16.7c0,7,2.2,12.6,6.6,16.7
			c4.4,4.2,10,6.3,16.8,6.3s12.4-2.1,16.7-6.3c4.4-4.2,6.5-9.7,6.5-16.7c0-7-2.2-12.6-6.5-16.7C477.4,120.5,471.8,118.4,465,118.4z"
			/>
	</g>
</g>
<g id="XMLID_52_">
	<g>
		<path class="st2" d="M99.1,284.3c0,7.2-2.2,12.6-6.7,16.4s-11,5.7-19.5,5.7H59.3V263h15.1c7.8,0,13.9,1.9,18.2,5.6
			C96.9,272.4,99.1,277.6,99.1,284.3z M88.5,284.6c0-9.3-4.5-14-13.6-14h-5.4v28.3h4.4C83.6,298.9,88.5,294.1,88.5,284.6z"/>
		<path class="st2" d="M107.8,264.6c0-3,1.8-4.4,5.4-4.4c3.6,0,5.4,1.5,5.4,4.4c0,1.4-0.5,2.5-1.4,3.3c-0.9,0.8-2.3,1.2-4.1,1.2
			C109.6,269.1,107.8,267.6,107.8,264.6z M118.2,306.5h-10v-33.2h10V306.5z"/>
		<path class="st2" d="M160.6,273.2v4.6l-5.7,1.3c1,1.5,1.6,3.2,1.6,5c0,3.6-1.4,6.3-4.1,8.3s-6.6,3-11.4,3l-1.8-0.1l-1.5-0.1
			c-1,0.7-1.5,1.5-1.5,2.4c0,1.3,1.8,2,5.5,2h6.2c4,0,7.1,0.8,9.2,2.3c2.1,1.6,3.2,3.9,3.2,6.9c0,3.9-1.8,6.9-5.4,9
			s-8.7,3.2-15.4,3.2c-5.1,0-9-0.8-11.7-2.4c-2.7-1.6-4-3.9-4-6.8c0-2,0.7-3.7,2.1-5s3.4-2.3,6.1-2.9c-1-0.4-1.9-1-2.7-1.9
			c-0.8-0.9-1.1-1.9-1.1-2.9c0-1.3,0.4-2.3,1.2-3.2c0.8-0.8,2-1.7,3.5-2.5c-1.9-0.8-3.4-2-4.6-3.6s-1.7-3.6-1.7-5.9
			c0-3.6,1.3-6.4,3.9-8.4c2.6-2,6.3-3,11.1-3c1,0,2.2,0.1,3.7,0.3c1.4,0.2,2.3,0.3,2.7,0.4H160.6z M132.3,311.2c0,1.2,0.7,2.2,2,2.9
			c1.3,0.7,3.2,1.1,5.6,1.1c3.6,0,6.4-0.4,8.4-1.3c2-0.9,3-2.1,3-3.7c0-1.2-0.6-2.1-1.8-2.6s-3.1-0.7-5.6-0.7h-5.2
			c-1.8,0-3.4,0.4-4.6,1.2C133,308.8,132.3,309.9,132.3,311.2z M136,284.1c0,1.8,0.5,3.2,1.4,4.3c0.9,1.1,2.3,1.6,4.1,1.6
			c1.9,0,3.3-0.5,4.1-1.6c0.9-1,1.3-2.5,1.3-4.3c0-4-1.8-6-5.4-6C137.8,278.1,136,280.1,136,284.1z"/>
		<path class="st2" d="M166.3,264.6c0-3,1.8-4.4,5.4-4.4c3.6,0,5.4,1.5,5.4,4.4c0,1.4-0.5,2.5-1.4,3.3c-0.9,0.8-2.3,1.2-4.1,1.2
			C168.1,269.1,166.3,267.6,166.3,264.6z M176.7,306.5h-10v-33.2h10V306.5z"/>
		<path class="st2" d="M202.6,299.8c1.7,0,3.8-0.3,6.3-1v6.7c-2.5,1-5.6,1.5-9.2,1.5c-4,0-6.9-0.9-8.7-2.8s-2.7-4.6-2.7-8.3v-16
			h-4.8v-3.8l5.5-3l2.9-7h6.4v7.1h10.3v6.8h-10.3v16c0,1.3,0.4,2.2,1.2,2.9S201.3,299.8,202.6,299.8z"/>
		<path class="st2" d="M239.6,306.5l-1.9-4.5h-0.3c-1.7,1.9-3.4,3.3-5.2,4c-1.8,0.7-4.1,1.1-7,1.1c-3.5,0-6.3-0.9-8.3-2.7
			c-2-1.8-3-4.4-3-7.8c0-3.5,1.4-6.1,4.1-7.8c2.7-1.7,6.8-2.6,12.3-2.8l6.4-0.2v-1.5c0-3.4-1.9-5.1-5.7-5.1c-2.9,0-6.4,0.8-10.3,2.4
			l-3.3-6.1c4.2-2,8.9-3,14-3c4.9,0,8.7,1,11.3,2.9c2.6,1.9,3.9,4.9,3.9,8.9v22.2H239.6z M236.7,291.1l-3.9,0.1
			c-2.9,0.1-5.1,0.6-6.5,1.4c-1.4,0.9-2.1,2.2-2.1,4c0,2.6,1.6,3.8,4.9,3.8c2.3,0,4.2-0.6,5.6-1.8c1.4-1.2,2.1-2.8,2.1-4.8V291.1z"
			/>
		<path class="st2" d="M266.9,306.5h-10v-46.3h10V306.5z"/>
		<path class="st2" d="M315.9,306.5l-11.5-34.1h-0.3c0.4,6.9,0.6,11.6,0.6,13.9v20.2h-9.1V263h13.8l11.3,33.2h0.2l12-33.2h13.8v43.5
			h-9.5v-20.6c0-1,0-2.1,0-3.4c0-1.3,0.2-4.6,0.4-10.1h-0.3l-12.4,34H315.9z"/>
		<path class="st2" d="M381.4,306.5l-1.9-4.5h-0.3c-1.7,1.9-3.4,3.3-5.2,4c-1.8,0.7-4.1,1.1-7,1.1c-3.5,0-6.3-0.9-8.3-2.7
			c-2-1.8-3-4.4-3-7.8c0-3.5,1.4-6.1,4.1-7.8c2.7-1.7,6.8-2.6,12.3-2.8l6.4-0.2v-1.5c0-3.4-1.9-5.1-5.7-5.1c-2.9,0-6.4,0.8-10.3,2.4
			l-3.3-6.1c4.2-2,8.9-3,14-3c4.9,0,8.7,1,11.3,2.9c2.6,1.9,3.9,4.9,3.9,8.9v22.2H381.4z M378.5,291.1l-3.9,0.1
			c-2.9,0.1-5.1,0.6-6.5,1.4c-1.4,0.9-2.1,2.2-2.1,4c0,2.6,1.6,3.8,4.9,3.8c2.3,0,4.2-0.6,5.6-1.8c1.4-1.2,2.1-2.8,2.1-4.8V291.1z"
			/>
		<path class="st2" d="M419.2,272.6c1.4,0,2.5,0.1,3.4,0.3l-0.8,8.5c-0.8-0.2-1.8-0.3-3-0.3c-3.2,0-5.7,0.7-7.5,2.2
			c-1.8,1.5-2.7,3.6-2.7,6.2v16.9h-10v-33.2h7.6l1.5,5.6h0.5c1.1-1.9,2.7-3.4,4.6-4.5C414.8,273.2,416.9,272.6,419.2,272.6z"/>
		<path class="st2" d="M438.8,288.4l4.4-5.1l10.3-10.1h11.3l-14.6,14.4l15.4,18.8h-11.5L443.5,293l-4.3,3.1v10.3h-10v-46.3h10v20.6
			l-0.5,7.6H438.8z"/>
		<path class="st2" d="M487.4,307.1c-5.9,0-10.5-1.5-13.8-4.4c-3.3-3-5-7.1-5-12.5c0-5.6,1.5-9.9,4.6-12.9c3.1-3,7.3-4.6,12.7-4.6
			c5.2,0,9.2,1.3,12.1,4s4.3,6.4,4.3,11.1v4.4h-23.6c0.1,2.6,1,4.6,2.5,6c1.6,1.4,3.8,2.2,6.6,2.2c2.2,0,4.3-0.2,6.3-0.6
			c2-0.4,4-1.1,6.2-2v7c-1.7,0.8-3.6,1.4-5.6,1.8S490.3,307.1,487.4,307.1z M486,279.1c-2.1,0-3.8,0.6-5,1.8
			c-1.2,1.2-1.9,2.9-2.1,5.2h14c0-2.2-0.7-4-1.9-5.2C489.8,279.7,488.1,279.1,486,279.1z"/>
		<path class="st2" d="M526,299.8c1.7,0,3.8-0.3,6.3-1v6.7c-2.5,1-5.6,1.5-9.2,1.5c-4,0-6.9-0.9-8.7-2.8s-2.7-4.6-2.7-8.3v-16h-4.8
			v-3.8l5.5-3l2.9-7h6.4v7.1h10.3v6.8h-10.3v16c0,1.3,0.4,2.2,1.2,2.9S524.7,299.8,526,299.8z"/>
		<path class="st2" d="M539.2,264.6c0-3,1.8-4.4,5.4-4.4c3.6,0,5.4,1.5,5.4,4.4c0,1.4-0.5,2.5-1.4,3.3c-0.9,0.8-2.3,1.2-4.1,1.2
			C541.1,269.1,539.2,267.6,539.2,264.6z M549.7,306.5h-10v-33.2h10V306.5z"/>
		<path class="st2" d="M594,306.5h-10v-19.4c0-2.4-0.5-4.2-1.4-5.4c-0.9-1.2-2.4-1.8-4.5-1.8c-2.8,0-4.8,0.8-6.1,2.5
			c-1.2,1.7-1.9,4.5-1.9,8.4v15.6h-10v-33.2h7.6l1.3,4.3h0.6c1.1-1.6,2.7-2.8,4.6-3.6c2-0.8,4.2-1.2,6.7-1.2c4.3,0,7.5,1,9.7,3.1
			c2.2,2.1,3.3,5.1,3.3,9.1V306.5z"/>
		<path class="st2" d="M636.2,273.2v4.6l-5.7,1.3c1,1.5,1.6,3.2,1.6,5c0,3.6-1.4,6.3-4.1,8.3s-6.6,3-11.4,3l-1.8-0.1l-1.5-0.1
			c-1,0.7-1.5,1.5-1.5,2.4c0,1.3,1.8,2,5.5,2h6.2c4,0,7.1,0.8,9.2,2.3c2.1,1.6,3.2,3.9,3.2,6.9c0,3.9-1.8,6.9-5.4,9
			s-8.7,3.2-15.4,3.2c-5.1,0-9-0.8-11.7-2.4c-2.7-1.6-4-3.9-4-6.8c0-2,0.7-3.7,2.1-5s3.4-2.3,6.1-2.9c-1-0.4-1.9-1-2.7-1.9
			c-0.8-0.9-1.1-1.9-1.1-2.9c0-1.3,0.4-2.3,1.2-3.2c0.8-0.8,2-1.7,3.5-2.5c-1.9-0.8-3.4-2-4.6-3.6s-1.7-3.6-1.7-5.9
			c0-3.6,1.3-6.4,3.9-8.4c2.6-2,6.3-3,11.1-3c1,0,2.2,0.1,3.7,0.3c1.4,0.2,2.3,0.3,2.7,0.4H636.2z M607.9,311.2c0,1.2,0.7,2.2,2,2.9
			c1.3,0.7,3.2,1.1,5.6,1.1c3.6,0,6.4-0.4,8.4-1.3c2-0.9,3-2.1,3-3.7c0-1.2-0.6-2.1-1.8-2.6s-3.1-0.7-5.6-0.7h-5.2
			c-1.8,0-3.4,0.4-4.6,1.2C608.5,308.8,607.9,309.9,607.9,311.2z M611.5,284.1c0,1.8,0.5,3.2,1.4,4.3c0.9,1.1,2.3,1.6,4.1,1.6
			c1.9,0,3.3-0.5,4.1-1.6c0.9-1,1.3-2.5,1.3-4.3c0-4-1.8-6-5.4-6C613.4,278.1,611.5,280.1,611.5,284.1z"/>
		<path class="st2" d="M689.8,306.5l-3.5-10.3h-17.5l-3.5,10.3h-11l16.9-43.6h12.4l17,43.6H689.8z M683.9,288.4
			c-3.2-9.4-5-14.7-5.4-15.9c-0.4-1.2-0.7-2.2-0.9-2.9c-0.7,2.5-2.8,8.8-6.2,18.8H683.9z"/>
		<path class="st2" d="M737.9,273.2v4.6l-5.7,1.3c1,1.5,1.6,3.2,1.6,5c0,3.6-1.4,6.3-4.1,8.3s-6.6,3-11.4,3l-1.8-0.1l-1.5-0.1
			c-1,0.7-1.5,1.5-1.5,2.4c0,1.3,1.8,2,5.5,2h6.2c4,0,7.1,0.8,9.2,2.3c2.1,1.6,3.2,3.9,3.2,6.9c0,3.9-1.8,6.9-5.4,9
			s-8.7,3.2-15.4,3.2c-5.1,0-9-0.8-11.7-2.4c-2.7-1.6-4-3.9-4-6.8c0-2,0.7-3.7,2.1-5s3.4-2.3,6.1-2.9c-1-0.4-1.9-1-2.7-1.9
			c-0.8-0.9-1.1-1.9-1.1-2.9c0-1.3,0.4-2.3,1.2-3.2c0.8-0.8,2-1.7,3.5-2.5c-1.9-0.8-3.4-2-4.6-3.6s-1.7-3.6-1.7-5.9
			c0-3.6,1.3-6.4,3.9-8.4c2.6-2,6.3-3,11.1-3c1,0,2.2,0.1,3.7,0.3c1.4,0.2,2.3,0.3,2.7,0.4H737.9z M709.6,311.2c0,1.2,0.7,2.2,2,2.9
			c1.3,0.7,3.2,1.1,5.6,1.1c3.6,0,6.4-0.4,8.4-1.3c2-0.9,3-2.1,3-3.7c0-1.2-0.6-2.1-1.8-2.6s-3.1-0.7-5.6-0.7h-5.2
			c-1.8,0-3.4,0.4-4.6,1.2C710.2,308.8,709.6,309.9,709.6,311.2z M713.3,284.1c0,1.8,0.5,3.2,1.4,4.3c0.9,1.1,2.3,1.6,4.1,1.6
			c1.9,0,3.3-0.5,4.1-1.6c0.9-1,1.3-2.5,1.3-4.3c0-4-1.8-6-5.4-6C715.1,278.1,713.3,280.1,713.3,284.1z"/>
		<path class="st2" d="M760.6,307.1c-5.9,0-10.5-1.5-13.8-4.4c-3.3-3-5-7.1-5-12.5c0-5.6,1.5-9.9,4.6-12.9c3.1-3,7.3-4.6,12.7-4.6
			c5.2,0,9.2,1.3,12.1,4s4.3,6.4,4.3,11.1v4.4h-23.6c0.1,2.6,1,4.6,2.5,6c1.6,1.4,3.8,2.2,6.6,2.2c2.2,0,4.3-0.2,6.3-0.6
			c2-0.4,4-1.1,6.2-2v7c-1.7,0.8-3.6,1.4-5.6,1.8S763.4,307.1,760.6,307.1z M759.1,279.1c-2.1,0-3.8,0.6-5,1.8
			c-1.2,1.2-1.9,2.9-2.1,5.2h14c0-2.2-0.7-4-1.9-5.2C762.9,279.7,761.3,279.1,759.1,279.1z"/>
		<path class="st2" d="M817.5,306.5h-10v-19.4c0-2.4-0.5-4.2-1.4-5.4c-0.9-1.2-2.4-1.8-4.5-1.8c-2.8,0-4.8,0.8-6.1,2.5
			c-1.2,1.7-1.9,4.5-1.9,8.4v15.6h-10v-33.2h7.6l1.3,4.3h0.6c1.1-1.6,2.7-2.8,4.6-3.6c2-0.8,4.2-1.2,6.7-1.2c4.3,0,7.5,1,9.7,3.1
			c2.2,2.1,3.3,5.1,3.3,9.1V306.5z"/>
		<path class="st2" d="M842.7,307.1c-11.4,0-17.1-5.7-17.1-17c0-5.6,1.6-10,4.7-12.9s7.6-4.5,13.3-4.5c4.2,0,8,0.8,11.4,2.3l-3,7
			c-1.6-0.6-3-1-4.4-1.4c-1.4-0.4-2.7-0.5-4.1-0.5c-5.2,0-7.8,3.4-7.8,10c0,6.5,2.6,9.8,7.8,9.8c1.9,0,3.7-0.2,5.3-0.7
			c1.6-0.5,3.3-1.2,4.9-2.2v7.8c-1.6,0.9-3.3,1.6-4.9,1.9S845.2,307.1,842.7,307.1z"/>
		<path class="st2" d="M857.1,273.2h11l6.9,18.7c0.6,1.6,1,3.5,1.2,5.8h0.2c0.2-2,0.7-4,1.4-5.8l6.8-18.7h10.7l-15.5,37.5
			c-1.4,3.5-3.4,6.1-6.1,7.8c-2.6,1.7-5.7,2.6-9.2,2.6c-1.7,0-3.4-0.2-5.1-0.5v-7.2c1.2,0.3,2.5,0.4,3.9,0.4c1.8,0,3.3-0.5,4.6-1.5
			c1.3-1,2.4-2.5,3.1-4.4l0.6-1.6L857.1,273.2z"/>
	</g>
</g>
</svg>
