<?xml version="1.0" encoding="utf-8"?>
<!-- Generator: Adobe Illustrator 23.0.0, SVG Export Plug-In . SVG Version: 6.00 Build 0)  -->
<svg version="1.1" id="Layer_1" xmlns="http://www.w3.org/2000/svg" xmlns:xlink="http://www.w3.org/1999/xlink" x="0px" y="0px"
	 viewBox="0 0 720 184.6" style="enable-background:new 0 0 720 184.6;" xml:space="preserve">
<style type="text/css">
	.st0{fill:#CED8D7;}
	.st1{fill:#F58B1E;}
</style>
<g id="XMLID_44_">
	<g id="XMLID_186_">
		<path id="XMLID_192_" class="st0" d="M28.3,121.8V41.6H3.8v98.8H84v-18.6C84,121.8,28.3,121.8,28.3,121.8z"/>
		<path id="XMLID_188_" class="st0" d="M159.7,69.8c-6.8-5.6-16.8-8.3-29.5-8.3c-6.7,0-13.2,0.8-19.5,2.4S99,67.7,94.5,70.6
			l8.6,15.2c3-2.1,6.6-3.9,10.9-5.1c4.2-1.3,8.6-1.9,13-1.9c6.3,0,11.1,2.3,14.3,4.8c3.1,2.5,4.7,7.8,4.7,12h-19.1
			c-12.1,0-21,1-26.8,5c-5.8,4-8.7,8.9-8.7,16c0,4.4,1.3,8,3.7,11.5c2.4,3.5,6,6,10.7,7.9c4.6,1.9,10.1,2.9,16.5,2.9
			c12.3,0,19.2-3.5,25.2-10.6v12.1h22.8V94.9C170.1,83.8,166.5,75.4,159.7,69.8z M145.6,114c-2.5,3.4-3.5,5.9-6.7,7.6
			c-3.1,1.7-6.8,2.5-10.8,2.5c-4.2,0-7.5-0.8-9.9-2.4s-3.6-2.9-3.6-5.7c0-5.8,4.9-7.8,14.8-7.8h16.2V114z"/>
	</g>
</g>
<g id="XMLID_8_">
	<path id="XMLID_10_" class="st1" d="M630.9,7H183v170.5h447.9c23.5,0,44.9-9.7,60.4-25.2s25-36.6,25-60.2C716.2,45.1,678,7,630.9,7
		z M672.9,63.1h19.7c4.1,8.8,6.5,18.5,6.5,28.9c0,10.3-2.4,20.1-6.5,28.9h-19.7V63.1z M660.4,120.8h-57.6V63.1h57.6V120.8z
		 M684.9,50.6h-12v-12C677.4,42.1,681.4,46.1,684.9,50.6z M631.5,24.4c10.3,0,20.1,2.4,28.9,6.5v19.7h-57.6V30.8
		C611.4,26.7,621.2,24.4,631.5,24.4z M590.2,38.6v12h-12C581.6,46.1,585.7,42.1,590.2,38.6z M224.4,107.2c2.7,4.4,6.5,7.8,11.4,10.3
		c4.9,2.4,10.5,3.7,16.6,3.7c10,0,18.5-3.6,25.2-10.8l14.9,12.5c-4.8,5.3-10.7,9.3-17.8,12.1s-14.9,4.1-23.6,4.1
		c-10.2,0-19.5-2-27.8-6.1s-14.8-9.6-19.5-16.8c-4.7-7.2-7.1-15.3-7.1-24.2s2.4-17.1,7.1-24.2c4.7-7.2,11.2-12.7,19.5-16.8
		s17.6-6.1,27.9-6.1c8.7,0,16.5,1.4,23.5,4.1c7,2.8,12.9,6.8,17.7,12l-14.9,12.7c-6.8-7.1-15.2-10.6-25.2-10.6
		c-6.2,0-11.7,1.3-16.6,3.7c-4.9,2.4-8.7,5.9-11.4,10.3s-4.1,9.5-4.1,15.1C220.3,97.8,221.6,102.8,224.4,107.2z M387.6,121.3
		c-3.6,5.5-8.6,9.7-15,12.8s-13.7,4.6-21.8,4.6c-8.1,0-15.4-1.5-21.9-4.6c-6.4-3-11.5-7.3-15.1-12.8s-5.4-11.6-5.4-18.6
		s1.8-13.2,5.4-18.6c3.6-5.5,8.7-9.7,15.1-12.8c6.4-3.1,13.8-4.6,21.9-4.6s15.4,1.5,21.8,4.6s11.4,7.3,15,12.8s5.5,11.6,5.5,18.6
		C393,109.7,391.2,115.8,387.6,121.3z M538.4,138.5h-22.6v-37.8c0-5.6-1.1-9.7-3.6-12.4c-2.5-2.7-6-4.1-10.6-4.1
		c-5.2,0-9.3,1.5-12.3,4.6s-4.2,7.7-4.2,13.8v36h-22.6v-37.8c0-11-5.3-16.5-15.1-16.5c-5.1,0-9.7,1.5-12.7,4.6s-5,7.7-5,13.8v36
		h-22.6v-70h22.6v7.1c2-3,6.2-5.2,10.5-6.8c4.1-1.5,8.6-2.4,13.6-2.4c5.4,0,10.4,1,14.8,3s7.9,4.8,10.6,8.5c3.1-3.6,7.2-6.5,12-8.4
		c4.8-2,10.1-3,15.9-3c9.7,0,17.4,2.6,23,7.8c5.7,5.1,8.5,12.9,8.5,23.2v40.8H538.4z M570.4,63.1h19.7v57.6h-19.7
		c-4.1-8.8-6.5-18.5-6.5-28.9C564,81.7,566.3,71.9,570.4,63.1z M578.2,133.3h12v12C585.7,141.8,581.6,137.8,578.2,133.3z M602.7,153
		v-19.7h57.6V153c-8.8,4.1-18.5,6.5-28.9,6.5C621.2,159.5,611.4,157.2,602.7,153z M672.9,145.3v-12h12
		C681.4,137.8,677.4,141.8,672.9,145.3z"/>
	<path id="XMLID_9_" class="st1" d="M350.7,83.3c-5.7,0-10.5,1.8-14.2,5.2c-3.7,3.5-5.6,8.2-5.6,14.1s1.9,10.6,5.6,14.1
		s8.4,5.3,14.2,5.3s10.5-1.8,14.1-5.3c3.7-3.5,5.5-8.2,5.5-14.1s-1.9-10.6-5.5-14.1C361.2,85.1,356.4,83.3,350.7,83.3z"/>
</g>
</svg>
